<svg xmlns="http://www.w3.org/2000/svg" viewBox="0 0 30 30.97"><defs><style>.cls-1{fill:#fff;}</style></defs><title>Asset 5</title><g id="Layer_2" data-name="Layer 2"><g id="Layer_1-2" data-name="Layer 1"><path class="cls-1" d="M29,18.14h-.46V14a2,2,0,0,0-.83-1.6V11.8a1.5,1.5,0,0,0-1.5-1.5h-.35L27.2,8.36a1.43,1.43,0,0,0-.38-2l-9-6.12a1.43,1.43,0,0,0-2,.38L8.1,12H5.94l.52-5.27a.16.16,0,0,1,.1-.13A3.35,3.35,0,0,0,8.19,5.27a.16.16,0,0,1,.15-.07l3.38.33a.44.44,0,1,0,.09-.88L8.43,4.33a1,1,0,0,0-1,.47,2.47,2.47,0,0,1-1.2,1,1,1,0,0,0-.67.87L5.05,12H4.49l.82-8.34a.55.55,0,0,1,.6-.49l6.84.68A.44.44,0,1,0,12.84,3L6,2.3A1.43,1.43,0,0,0,4.43,3.58L3.77,10.3H2.64a1.5,1.5,0,0,0-1.5,1.5v.39A2,2,0,0,0,0,14V29a2,2,0,0,0,2,2H26.58a2,2,0,0,0,2-2V24.83H29a1,1,0,0,0,1-1V19.13A1,1,0,0,0,29,18.14Zm-2.79-7h0a.61.61,0,0,1,.61.61V12l-.25,0H24.71l.56-.82ZM16.58,1.12a.54.54,0,0,1,.35-.23H17a.54.54,0,0,1,.31.1l9,6.12a.55.55,0,0,1,.14.76L23.64,12H23l1.38-2a1,1,0,0,0,0-1.09,2.47,2.47,0,0,1-.3-1.52,1,1,0,0,0-.45-1L19,3.19a1,1,0,0,0-1.09-.05,2.47,2.47,0,0,1-1.52.28,1,1,0,0,0-1,.45L9.84,12H9.16Zm.19,7.49A3.64,3.64,0,0,0,13.15,12H10.91l5.21-7.64h0a.16.16,0,0,1,.13-.07h0a3.36,3.36,0,0,0,2.07-.38.16.16,0,0,1,.16,0l4.66,3.17a.16.16,0,0,1,.07.15,3.35,3.35,0,0,0,.4,2.07.16.16,0,0,1,0,.16L21.9,12H20.4A3.64,3.64,0,0,0,16.77,8.62ZM19.52,12H14a2.75,2.75,0,0,1,5.49,0ZM2,11.8a.61.61,0,0,1,.61-.61h1L3.6,12H2ZM.88,14A1.08,1.08,0,0,1,2,12.89H26.58A1.08,1.08,0,0,1,27.66,14v1.22H.88ZM27.66,29a1.08,1.08,0,0,1-1.08,1.08H2A1.08,1.08,0,0,1,.88,29V27.78H3.26a.44.44,0,0,0,0-.88H.88V16.07H27.66v2.07h-4.2a3.35,3.35,0,0,0-3,1.89h0v0a3.33,3.33,0,0,0-.17.43h0a3.35,3.35,0,0,0,3.2,4.34h4.2V26.9H6.09a.44.44,0,0,0,0,.88H27.66Zm1.46-5.17A.11.11,0,0,1,29,24H23.47a2.47,2.47,0,0,1-2.17-1.29l-.05-.11q-.05-.11-.09-.22a2.47,2.47,0,0,1,0-1.69l.09-.22.05-.11A2.47,2.47,0,0,1,23.47,19H29a.11.11,0,0,1,.11.11v4.71Z"/></g></g></svg>