<svg xmlns="http://www.w3.org/2000/svg" viewBox="0 0 18.76 17.22"><defs><style>.cls-1{fill:#fff;}</style></defs><title>Asset 2</title><g id="Layer_2" data-name="Layer 2"><g id="Layer_1-2" data-name="Layer 1"><path class="cls-1" d="M9.48,14.59l-.09.09-.1-.09c-4.46-4-7.4-6.72-7.4-9.43A3.21,3.21,0,0,1,5.16,1.88,3.68,3.68,0,0,1,8.51,4.09h1.74A3.68,3.68,0,0,1,13.6,1.88a3.21,3.21,0,0,1,3.28,3.28c0,2.71-2.95,5.38-7.41,9.43M13.6,0A5.64,5.64,0,0,0,9.38,2,5.64,5.64,0,0,0,5.16,0,5.1,5.1,0,0,0,0,5.16C0,8.7,3.19,11.6,8,16l1.36,1.24L10.74,16c4.83-4.38,8-7.28,8-10.82A5.1,5.1,0,0,0,13.6,0Z"/></g></g></svg>