<svg xmlns="http://www.w3.org/2000/svg" viewBox="0 0 17.65 10"><defs><style>.cls-1{fill:#fff;}</style></defs><title>Asset 1</title><g id="Layer_2" data-name="Layer 2"><g id="Layer_1-2" data-name="Layer 1"><rect class="cls-1" x="5.29" y="5.88" width="0.59" height="0.59"/><rect class="cls-1" x="5.29" y="7.06" width="0.59" height="0.59"/><rect class="cls-1" x="5.29" y="8.24" width="0.59" height="0.59"/><rect class="cls-1" x="5.29" y="4.71" width="0.59" height="0.59"/><rect class="cls-1" x="5.29" y="3.53" width="0.59" height="0.59"/><rect class="cls-1" x="5.29" y="2.35" width="0.59" height="0.59"/><rect class="cls-1" x="5.29" y="1.18" width="0.59" height="0.59"/><rect class="cls-1" x="1.18" y="1.18" width="0.59" height="0.59"/><rect class="cls-1" x="15.88" y="1.18" width="0.59" height="0.59"/><rect class="cls-1" x="15.88" y="8.24" width="0.59" height="0.59"/><rect class="cls-1" x="1.18" y="8.24" width="0.59" height="0.59"/><path class="cls-1" d="M17.35,3.53a.29.29,0,0,0,.29-.29V.29A.29.29,0,0,0,17.35,0H.29A.29.29,0,0,0,0,.29V3.24a.29.29,0,0,0,.29.29,1.47,1.47,0,0,1,0,2.94A.29.29,0,0,0,0,6.76V9.71A.29.29,0,0,0,.29,10H17.35a.29.29,0,0,0,.29-.29V6.76a.29.29,0,0,0-.29-.29,1.47,1.47,0,1,1,0-2.94Zm-2,1.76A2.06,2.06,0,0,0,17.06,7V9.41H.59V7A2.06,2.06,0,0,0,.59,3V.59H17.06V3A2.06,2.06,0,0,0,15.31,5.29Z"/><path class="cls-1" d="M8.82,2.06A1.18,1.18,0,1,0,10,3.24,1.18,1.18,0,0,0,8.82,2.06Zm0,1.76a.59.59,0,1,1,.59-.59A.59.59,0,0,1,8.82,3.82Z"/><path class="cls-1" d="M12.35,5.59a1.18,1.18,0,1,0,1.18,1.18A1.18,1.18,0,0,0,12.35,5.59Zm0,1.76a.59.59,0,1,1,.59-.59A.59.59,0,0,1,12.35,7.35Z"/><rect class="cls-1" x="7.26" y="4.71" width="6.65" height="0.59" transform="translate(-0.43 8.95) rotate(-45)"/></g></g></svg>