<svg xmlns="http://www.w3.org/2000/svg" viewBox="0 0 18.62 22.71"><defs><style>.cls-1{fill:#fff;}</style></defs><title>Asset 3</title><g id="Layer_2" data-name="Layer 2"><g id="Layer_1-2" data-name="Layer 1"><path class="cls-1" d="M18.62,5.78V20.52a2.19,2.19,0,0,1-2.18,2.18h-10a2.19,2.19,0,0,1-2.18-2.18V10.94a5.81,5.81,0,0,0,1,.09,5.8,5.8,0,0,0,.68,0v9.54a.55.55,0,0,0,.55.55h10a.55.55,0,0,0,.55-.55V5.78a.55.55,0,0,0-.55-.55H11a5.78,5.78,0,0,0-.24-1.64h5.64A2.19,2.19,0,0,1,18.62,5.78ZM5.15,10.3A5.15,5.15,0,1,1,10.3,5.15,5.16,5.16,0,0,1,5.15,10.3Zm0-1.09A4.06,4.06,0,1,0,1.09,5.15,4.06,4.06,0,0,0,5.15,9.21ZM8.24,5.7a.55.55,0,0,0,0-1.09H5.7V2.46a.55.55,0,1,0-1.09,0V5.15a.55.55,0,0,0,.55.55Zm6.3,4.43H8.63a.55.55,0,1,0,0,1.09h5.92a.55.55,0,1,0,0-1.09Zm0,3.31H8.64a.55.55,0,0,0,0,1.09h5.92a.55.55,0,0,0,0-1.09Zm0,3.45H8.64a.55.55,0,1,0,0,1.09h5.92a.55.55,0,0,0,0-1.09Z"/></g></g></svg>